<?xml version="1.0" encoding="UTF-8" standalone="no"?>
<svg width="21px" height="32px" viewBox="0 0 21 32" version="1.1" xmlns="http://www.w3.org/2000/svg" xmlns:xlink="http://www.w3.org/1999/xlink" xmlns:sketch="http://www.bohemiancoding.com/sketch/ns">
    <!-- Generator: Sketch 3.1.1 (8761) - http://www.bohemiancoding.com/sketch -->
    <title>✒</title>
    <desc>Created with Sketch.</desc>
    <defs></defs>
    <g id="Page-1" stroke="none" stroke-width="1" fill="none" fill-rule="evenodd" sketch:type="MSPage">
        <g id="Desktop-HD-2" sketch:type="MSArtboardGroup" transform="translate(-67.000000, -1425.000000)" fill="#444444" opacity="0.5">
            <g id="Group" sketch:type="MSLayerGroup" transform="translate(-3.000000, 926.000000)">
                <g id="Group-3-+-Rectangle-2-+-Group-7-+-✒" transform="translate(71.000000, 499.000000)" sketch:type="MSShapeGroup">
                    <path d="M4,24 C7.26709595,23.0165725 8.78857691,24.2566602 11,19 C9.22328575,20.1023663 6.94106431,18.1182259 7,17 C7.15841874,16.5061119 12.3749249,17.9322128 16,12 C11.5055072,13.4058925 10.147042,10.9877214 11,11 C11.940216,9.74763369 15.7439184,10.2436688 18,8 C18.7868803,6.77142312 19.2759278,3.91922132 19,3 C18.3521715,1.68706339 15.254871,-0.173068221 14,0 C11.8315388,0.136953714 9.16894715,7.57748015 8,8 C7.53878898,7.45347137 7.43011176,4.16723887 9,1 C7.32143455,1.93508094 4.65884288,4.29124764 4,6 C2.21360562,9.99565124 3.952441,18.5522566 3,19 C2.86566889,19.1723005 1.0181563,14.9560022 2.84217094e-14,13 C-0.285970238,15.9480724 -0.340308844,18.924283 2,23 C1.0724949,25.3727392 0.583447453,28.3489498 1,30 C0.474770241,31.0151384 1.50720375,31.3251604 2,31 C2.10492841,29.0930024 2.75699168,26.8608445 4,24 Z" id="✒"></path>
                </g>
            </g>
        </g>
    </g>
</svg>