<?xml version="1.0" encoding="UTF-8" standalone="no"?>
<svg width="25px" height="25px" viewBox="0 0 25 25" version="1.1" xmlns="http://www.w3.org/2000/svg" xmlns:xlink="http://www.w3.org/1999/xlink" xmlns:sketch="http://www.bohemiancoding.com/sketch/ns">
    <!-- Generator: Sketch 3.1.1 (8761) - http://www.bohemiancoding.com/sketch -->
    <title>✎</title>
    <desc>Created with Sketch.</desc>
    <defs></defs>
    <g id="Page-1" stroke="none" stroke-width="1" fill="none" fill-rule="evenodd" sketch:type="MSPage">
        <g id="Desktop-HD-2" sketch:type="MSArtboardGroup" transform="translate(-62.000000, -2100.000000)" fill="#9A9A9A">
            <path d="M84.2075283,2102.27888 C81.9805896,2100.05194 80.3103855,2100.4231 80.3103855,2100.4231 L72.5160998,2108.21739 L63.5464853,2117.12514 L62,2124.54827 L69.3612698,2122.93993 L78.3308844,2114.03217 L86.1251701,2106.23788 C86.1251701,2106.23788 86.4344671,2104.56768 84.2075283,2102.27888 L84.2075283,2102.27888 Z M68.928254,2122.07389 L66.4538776,2122.63063 C66.2064399,2122.13575 65.8971429,2121.70274 65.3404082,2121.146 C64.8455329,2120.65113 64.3506576,2120.34183 63.9176417,2120.09439 L64.4743764,2117.62002 L65.1548299,2116.8777 C65.1548299,2116.8777 66.5775964,2116.8777 68.0622222,2118.42419 C69.6087075,2119.97067 69.6705669,2121.33158 69.6705669,2121.33158 L68.928254,2122.07389 Z" id="✎" sketch:type="MSShapeGroup"></path>
        </g>
    </g>
</svg>