<?xml version="1.0" encoding="UTF-8" standalone="no"?>
<svg width="34px" height="19px" viewBox="0 0 34 19" version="1.1" xmlns="http://www.w3.org/2000/svg" xmlns:xlink="http://www.w3.org/1999/xlink" xmlns:sketch="http://www.bohemiancoding.com/sketch/ns">
    <!-- Generator: Sketch 3.1.1 (8761) - http://www.bohemiancoding.com/sketch -->
    <title></title>
    <desc>Created with Sketch.</desc>
    <defs></defs>
    <g id="Page-1" stroke="none" stroke-width="1" fill="none" fill-rule="evenodd" sketch:type="MSPage">
        <g id="Desktop-HD-2" sketch:type="MSArtboardGroup" transform="translate(-489.000000, -2983.000000)" fill="#878787">
            <path d="M505.8,2983.26 C494.976,2983.26 489.3,2991.18 489.3,2992.5 C489.3,2993.754 494.976,3001.74 505.8,3001.74 C516.624,3001.74 522.3,2993.754 522.3,2992.5 C522.3,2991.18 516.624,2983.26 505.8,2983.26 L505.8,2983.26 Z M505.8,2999.562 C501.774,2999.562 498.474,2996.394 498.474,2992.5 C498.474,2988.54 501.774,2985.372 505.8,2985.372 C509.826,2985.372 513.126,2988.54 513.126,2992.5 C513.126,2996.394 509.826,2999.562 505.8,2999.562 L505.8,2999.562 Z M505.8,2992.5 C505.14,2991.708 506.922,2988.936 505.8,2988.936 C503.754,2988.936 502.17,2990.52 502.17,2992.5 C502.17,2994.414 503.754,2995.998 505.8,2995.998 C507.846,2995.998 509.496,2994.414 509.496,2992.5 C509.496,2991.576 506.394,2993.094 505.8,2992.5 L505.8,2992.5 Z" id="" sketch:type="MSShapeGroup"></path>
        </g>
    </g>
</svg>